grf
version=1
nRows=5
nColumns=73
inDegrees=yes
endheader
time	ground_force_1_vx	ground_force_1_vy	ground_force_1_vz	ground_force_1_px	ground_force_1_py	ground_force_1_pz	ground_moment_1_mx	ground_moment_1_my	ground_moment_1_mz	ground_force_2_vx	ground_force_2_vy	ground_force_2_vz	ground_force_2_px	ground_force_2_py	ground_force_2_pz	ground_moment_2_mx	ground_moment_2_my	ground_moment_2_mz	ground_force_3_vx	ground_force_3_vy	ground_force_3_vz	ground_force_3_px	ground_force_3_py	ground_force_3_pz	ground_moment_3_mx	ground_moment_3_my	ground_moment_3_mz	ground_force_4_vx	ground_force_4_vy	ground_force_4_vz	ground_force_4_px	ground_force_4_py	ground_force_4_pz	ground_moment_4_mx	ground_moment_4_my	ground_moment_4_mz	ground_force_5_vx	ground_force_5_vy	ground_force_5_vz	ground_force_5_px	ground_force_5_py	ground_force_5_pz	ground_moment_5_mx	ground_moment_5_my	ground_moment_5_mz	ground_force_6_vx	ground_force_6_vy	ground_force_6_vz	ground_force_6_px	ground_force_6_py	ground_force_6_pz	ground_moment_6_mx	ground_moment_6_my	ground_moment_6_mz	ground_force_7_vx	ground_force_7_vy	ground_force_7_vz	ground_force_7_px	ground_force_7_py	ground_force_7_pz	ground_moment_7_mx	ground_moment_7_my	ground_moment_7_mz	ground_force_8_vx	ground_force_8_vy	ground_force_8_vz	ground_force_8_px	ground_force_8_py	ground_force_8_pz	ground_moment_8_mx	ground_moment_8_my	ground_moment_8_mz
0.793000	30.171399	113.075387	-8.776694	0.746136	0.000000	0.325817	0.000000	-0.585789	-0.000000	88.997300	558.477949	12.820649	0.217118	0.000000	0.388640	-0.000000	2.217974	0.000000	30.337570	112.463159	-8.776898	0.747146	0.000000	0.326524	0.000000	-0.569352	0.000000	88.988806	558.493026	12.818977	0.215055	0.000000	0.387218	-0.000000	2.217984	-0.000000	29.975807	100.889688	-7.371243	0.752353	0.000000	0.324361	-0.000000	-0.717898	0.000000	87.157767	562.048444	12.326834	0.219950	0.000000	0.388762	-0.000000	2.269222	0.000000	30.344647	98.667868	-7.302807	0.731510	0.000000	0.336956	-0.000000	-0.311415	-0.000000	87.477980	561.279888	12.048544	0.223768	0.000000	0.388799	-0.000000	2.301319	0.000000
0.794000	29.861773	118.023549	-9.510964	0.745934	0.000000	0.326170	0.000000	-0.549613	-0.000000	89.852157	556.961544	13.002531	0.215994	0.000000	0.388621	-0.000000	2.205273	0.000000	30.083886	117.518044	-9.528771	0.745680	0.000000	0.326560	0.000000	-0.536610	0.000000	89.843847	556.977324	13.000891	0.213931	0.000000	0.387199	-0.000000	2.205292	-0.000000	30.139870	106.131390	-7.949766	0.748802	0.000000	0.324934	-0.000000	-0.684666	0.000000	88.058351	560.730689	12.526098	0.218842	0.000000	0.388734	-0.000000	2.262617	0.000000	30.788053	103.902491	-7.988719	0.726540	0.000000	0.333967	-0.000000	-0.191400	-0.000000	88.375585	559.949003	12.242863	0.222683	0.000000	0.388760	-0.000000	2.297493	0.000000
0.795000	29.401283	122.799775	-10.318343	0.745059	0.000000	0.326573	0.000000	-0.517801	-0.000000	90.684327	555.352138	13.176874	0.214862	0.000000	0.388602	-0.000000	2.190702	0.000000	29.667056	122.390907	-10.350587	0.743802	0.000000	0.326739	0.000000	-0.507860	0.000000	90.676237	555.368650	13.175301	0.212799	0.000000	0.387179	-0.000000	2.190741	-0.000000	30.128072	111.257031	-8.604970	0.745171	0.000000	0.325530	-0.000000	-0.648469	0.000000	88.942286	559.330030	12.726185	0.217723	0.000000	0.388711	-0.000000	2.255722	0.000000	31.001736	109.022406	-8.738092	0.721895	0.000000	0.331466	-0.000000	-0.089732	-0.000000	89.256753	558.536319	12.438568	0.221590	0.000000	0.388724	-0.000000	2.293104	0.000000
0.796000	28.799972	127.373659	-11.195473	0.743610	0.000000	0.327019	0.000000	-0.489256	-0.000000	91.490999	553.645118	13.339772	0.213724	0.000000	0.388581	-0.000000	2.172931	0.000000	29.098490	127.051597	-11.239294	0.741583	0.000000	0.327039	0.000000	-0.482025	0.000000	91.483160	553.662396	13.338301	0.211661	0.000000	0.387159	-0.000000	2.173003	-0.000000	29.945346	116.233214	-9.334878	0.741489	0.000000	0.326146	-0.000000	-0.613183	0.000000	89.806829	557.843268	12.922865	0.216591	0.000000	0.388690	-0.000000	2.247873	0.000000	30.996133	113.994079	-9.549739	0.717573	0.000000	0.329421	-0.000000	-0.007738	-0.000000	90.118744	557.038632	12.631401	0.220488	0.000000	0.388693	-0.000000	2.287501	0.000000
0.797000	28.068379	131.717946	-12.138584	0.741685	0.000000	0.327498	0.000000	-0.461155	-0.000000	92.270917	551.836610	13.487213	0.212583	0.000000	0.388558	-0.000000	2.150725	0.000000	28.390029	131.473210	-12.191421	0.739094	0.000000	0.327443	0.000000	-0.456303	0.000000	92.263341	551.854683	13.485882	0.210520	0.000000	0.387136	-0.000000	2.150841	-0.000000	29.599552	121.028950	-10.136750	0.737783	0.000000	0.326776	-0.000000	-0.580878	0.000000	90.648456	556.265563	13.112107	0.215451	0.000000	0.388672	-0.000000	2.237942	0.000000	30.784409	118.786388	-10.421758	0.713568	0.000000	0.327800	-0.000000	0.054919	-0.000000	90.958039	555.451081	12.817301	0.219376	0.000000	0.388666	-0.000000	2.279572	0.000000
